<svg width="13" height="16" viewBox="0 0 13 16" fill="none" xmlns="http://www.w3.org/2000/svg">
    <path
        d="M11.6667 6.34275C11.6667 9.67142 7.974 13.1381 6.734 14.2088C6.49669 14.3872 6.16997 14.3872 5.93267 14.2088C4.69267 13.1381 1 9.67142 1 6.34275C1 2.23715 5.44444 -0.328848 9 1.72395C10.6501 2.67666 11.6667 4.43734 11.6667 6.34275M6.33333 8.34276C7.43733 8.34276 8.33333 7.44675 8.33333 6.34275C8.33333 5.23875 7.43733 4.34275 6.33333 4.34275C5.22933 4.34275 4.33333 5.23875 4.33333 6.34275C4.33333 7.44675 5.22933 8.34276 6.33333 8.34276"
        stroke="currentColor" stroke-width="2" />
</svg>