<svg width="16" height="16" viewBox="0 0 16 16" fill="none" xmlns="http://www.w3.org/2000/svg">
    <path
        d="M8.88796 10.7121C9.17157 10.8423 9.50758 10.7584 9.69663 10.5101L9.93329 10.2001C10.1851 9.86434 10.5803 9.66675 11 9.66675H13C13.7363 9.66675 14.3333 10.2637 14.3333 11.0001V13.0001C14.3333 13.7365 13.7363 14.3334 13 14.3334C6.37254 14.3334 0.999959 8.96083 0.999959 2.33341C0.999959 1.59704 1.59691 1.00008 2.33329 1.00008H4.33329C5.06967 1.00008 5.66663 1.59704 5.66663 2.33341V4.33341C5.66663 4.75309 5.46903 5.14828 5.13329 5.40008L4.82129 5.63408C4.56894 5.82677 4.48749 6.17068 4.62663 6.45608C5.53775 8.30666 7.03624 9.80328 8.88796 10.7121"
        stroke="currentColor" stroke-width="2" />
</svg>