<svg width="14" height="16" viewBox="0 0 14 16" fill="none" xmlns="http://www.w3.org/2000/svg">
    <path
        d="M5.41889 2.41554C5.53253 1.22004 6.89772 0.595864 7.87623 1.29203C8.2453 1.5546 8.48203 1.96462 8.52489 2.41554C8.6202 3.49323 9.75685 4.14905 10.7376 3.6922C11.831 3.19576 13.0519 4.06919 12.9351 5.26439C12.8913 5.71201 12.6565 6.11897 12.2909 6.38087C11.4056 7.00205 11.4056 8.31369 12.2909 8.93487C13.2672 9.63418 13.1203 11.1281 12.0265 11.6239C11.6169 11.8096 11.1471 11.8095 10.7376 11.6235C9.75685 11.1667 8.6202 11.8225 8.52489 12.9002C8.41125 14.0957 7.04607 14.7199 6.06755 14.0237C5.69848 13.7611 5.46175 13.3511 5.41889 12.9002C5.32375 11.8221 4.18645 11.1661 3.20556 11.6235C2.11209 12.12 0.891252 11.2465 1.00805 10.0514C1.05179 9.60373 1.2866 9.19677 1.65222 8.93487C2.53752 8.31369 2.53752 7.00205 1.65222 6.38087C0.676589 5.68068 0.824798 4.1869 1.919 3.69207C2.32771 3.50724 2.79621 3.50729 3.20489 3.6922C4.1856 4.14905 5.32225 3.49323 5.41756 2.41554M6.97156 9.6582C8.07556 9.6582 8.97156 8.7622 8.97156 7.6582C8.97156 6.5542 8.07556 5.6582 6.97156 5.6582C5.86756 5.6582 4.97156 6.5542 4.97156 7.6582C4.97156 8.7622 5.86756 9.6582 6.97156 9.6582"
        stroke="currentColor" stroke-width="2" />
</svg>